<mxfile host="app.diagrams.net" modified="2023-08-29T23:37:39.970Z" agent="Mozilla/5.0 (Windows NT 10.0; Win64; x64) AppleWebKit/537.36 (KHTML, like Gecko) Chrome/116.0.0.0 Safari/537.36" etag="o3IHrcatbZxx8jS5vJdE" version="21.6.9" type="device">
  <diagram name="Página-1" id="aPwu-H_7jpnuDPYaP91Y">
    <mxGraphModel dx="1050" dy="566" grid="1" gridSize="10" guides="1" tooltips="1" connect="1" arrows="1" fold="1" page="1" pageScale="1" pageWidth="827" pageHeight="1169" math="0" shadow="0">
      <root>
        <mxCell id="0" />
        <mxCell id="1" parent="0" />
        <mxCell id="P-i2-GOp5fA185zOCViP-3" value="" style="edgeStyle=orthogonalEdgeStyle;rounded=0;orthogonalLoop=1;jettySize=auto;html=1;" parent="1" source="P-i2-GOp5fA185zOCViP-1" target="P-i2-GOp5fA185zOCViP-2" edge="1">
          <mxGeometry relative="1" as="geometry" />
        </mxCell>
        <mxCell id="P-i2-GOp5fA185zOCViP-1" value="" style="ellipse;whiteSpace=wrap;html=1;aspect=fixed;fillColor=#d5e8d4;strokeColor=#82b366;" parent="1" vertex="1">
          <mxGeometry x="70" y="32.5" width="70" height="70" as="geometry" />
        </mxCell>
        <mxCell id="P-i2-GOp5fA185zOCViP-5" value="" style="edgeStyle=orthogonalEdgeStyle;rounded=0;orthogonalLoop=1;jettySize=auto;html=1;" parent="1" source="P-i2-GOp5fA185zOCViP-2" target="P-i2-GOp5fA185zOCViP-4" edge="1">
          <mxGeometry relative="1" as="geometry" />
        </mxCell>
        <mxCell id="P-i2-GOp5fA185zOCViP-2" value="Ler qtnd de KWh por mês&lt;br&gt;&lt;b&gt;&lt;font style=&quot;font-size: 10px;&quot;&gt;(KWh = 0,85)&lt;/font&gt;&lt;/b&gt;" style="whiteSpace=wrap;html=1;" parent="1" vertex="1">
          <mxGeometry x="280" y="40" width="115" height="55" as="geometry" />
        </mxCell>
        <mxCell id="P-i2-GOp5fA185zOCViP-7" value="" style="edgeStyle=orthogonalEdgeStyle;rounded=0;orthogonalLoop=1;jettySize=auto;html=1;" parent="1" source="P-i2-GOp5fA185zOCViP-4" target="P-i2-GOp5fA185zOCViP-6" edge="1">
          <mxGeometry relative="1" as="geometry" />
        </mxCell>
        <mxCell id="P-i2-GOp5fA185zOCViP-4" value="&lt;font style=&quot;font-size: 11px;&quot;&gt;Calcular&lt;/font&gt;&lt;br&gt;&lt;b&gt;&lt;font style=&quot;font-size: 9px;&quot;&gt;(Valor = Qntd * KWh)&lt;/font&gt;&lt;/b&gt;" style="whiteSpace=wrap;html=1;" parent="1" vertex="1">
          <mxGeometry x="510" y="37.5" width="120" height="60" as="geometry" />
        </mxCell>
        <mxCell id="P-i2-GOp5fA185zOCViP-9" value="" style="edgeStyle=orthogonalEdgeStyle;rounded=0;orthogonalLoop=1;jettySize=auto;html=1;" parent="1" source="P-i2-GOp5fA185zOCViP-6" target="P-i2-GOp5fA185zOCViP-8" edge="1">
          <mxGeometry relative="1" as="geometry" />
        </mxCell>
        <mxCell id="P-i2-GOp5fA185zOCViP-11" value="" style="edgeStyle=orthogonalEdgeStyle;rounded=0;orthogonalLoop=1;jettySize=auto;html=1;" parent="1" source="P-i2-GOp5fA185zOCViP-6" target="P-i2-GOp5fA185zOCViP-10" edge="1">
          <mxGeometry relative="1" as="geometry" />
        </mxCell>
        <mxCell id="P-i2-GOp5fA185zOCViP-6" value="" style="rhombus;whiteSpace=wrap;html=1;" parent="1" vertex="1">
          <mxGeometry x="530" y="190" width="80" height="80" as="geometry" />
        </mxCell>
        <mxCell id="P-i2-GOp5fA185zOCViP-16" style="edgeStyle=orthogonalEdgeStyle;rounded=0;orthogonalLoop=1;jettySize=auto;html=1;exitX=0.5;exitY=1;exitDx=0;exitDy=0;entryX=0.5;entryY=0;entryDx=0;entryDy=0;" parent="1" source="P-i2-GOp5fA185zOCViP-8" target="P-i2-GOp5fA185zOCViP-14" edge="1">
          <mxGeometry relative="1" as="geometry" />
        </mxCell>
        <mxCell id="P-i2-GOp5fA185zOCViP-8" value="Exibir:&lt;br style=&quot;border-color: var(--border-color);&quot;&gt;Valor a ser pago&lt;br&gt;&amp;nbsp;&lt;b style=&quot;border-color: var(--border-color);&quot;&gt;&quot;Valor - 10%&quot;&lt;/b&gt;" style="whiteSpace=wrap;html=1;" parent="1" vertex="1">
          <mxGeometry x="700" y="200" width="120" height="60" as="geometry" />
        </mxCell>
        <mxCell id="P-i2-GOp5fA185zOCViP-15" style="edgeStyle=orthogonalEdgeStyle;rounded=0;orthogonalLoop=1;jettySize=auto;html=1;exitX=0.5;exitY=1;exitDx=0;exitDy=0;entryX=0.5;entryY=1;entryDx=0;entryDy=0;" parent="1" source="P-i2-GOp5fA185zOCViP-10" target="P-i2-GOp5fA185zOCViP-14" edge="1">
          <mxGeometry relative="1" as="geometry">
            <Array as="points">
              <mxPoint x="570" y="550" />
              <mxPoint x="760" y="550" />
            </Array>
          </mxGeometry>
        </mxCell>
        <mxCell id="P-i2-GOp5fA185zOCViP-10" value="Exibir:&lt;br&gt;Valor a ser pago &lt;b&gt;&quot;Valor&quot;&lt;/b&gt;" style="whiteSpace=wrap;html=1;" parent="1" vertex="1">
          <mxGeometry x="510" y="360" width="120" height="60" as="geometry" />
        </mxCell>
        <mxCell id="P-i2-GOp5fA185zOCViP-12" value="&lt;b style=&quot;font-size: 10px;&quot;&gt;Qntd &amp;lt; 100kmh&lt;/b&gt;" style="text;html=1;strokeColor=none;fillColor=none;align=center;verticalAlign=middle;whiteSpace=wrap;rounded=0;fontSize=10;" parent="1" vertex="1">
          <mxGeometry x="610" y="200" width="80" height="30" as="geometry" />
        </mxCell>
        <mxCell id="P-i2-GOp5fA185zOCViP-13" value="&lt;b style=&quot;border-color: var(--border-color); color: rgb(0, 0, 0); font-family: Helvetica; font-size: 10px; font-style: normal; font-variant-ligatures: normal; font-variant-caps: normal; letter-spacing: normal; orphans: 2; text-align: center; text-indent: 0px; text-transform: none; widows: 2; word-spacing: 0px; -webkit-text-stroke-width: 0px; background-color: rgb(251, 251, 251); text-decoration-thickness: initial; text-decoration-style: initial; text-decoration-color: initial;&quot;&gt;Qntd &amp;gt;= 100kmh&lt;/b&gt;" style="text;whiteSpace=wrap;html=1;" parent="1" vertex="1">
          <mxGeometry x="580" y="320" width="110" height="40" as="geometry" />
        </mxCell>
        <mxCell id="P-i2-GOp5fA185zOCViP-14" value="" style="ellipse;whiteSpace=wrap;html=1;aspect=fixed;fillColor=#f8cecc;strokeColor=#b85450;" parent="1" vertex="1">
          <mxGeometry x="725" y="380" width="70" height="70" as="geometry" />
        </mxCell>
      </root>
    </mxGraphModel>
  </diagram>
</mxfile>
